<svg width="16" height="16" viewBox="0 0 16 16" fill="none" xmlns="http://www.w3.org/2000/svg">
  <path d="M3 2.5A1.5 1.5 0 0 1 4.5 1h7A1.5 1.5 0 0 1 13 2.5v11a1.5 1.5 0 0 1-1.5 1.5h-7A1.5 1.5 0 0 1 3 13.5v-11z" fill="currentColor" opacity="0.2"/>
  <path d="M4.5 1A1.5 1.5 0 0 0 3 2.5v11A1.5 1.5 0 0 0 4.5 15h7a1.5 1.5 0 0 0 1.5-1.5v-11A1.5 1.5 0 0 0 11.5 1h-7zM4 2.5a.5.5 0 0 1 .5-.5h7a.5.5 0 0 1 .5.5v11a.5.5 0 0 1-.5.5h-7a.5.5 0 0 1-.5-.5v-11z" fill="currentColor"/>
  <path d="M5 4h6v1H5V4zm0 2h6v1H5V6zm0 2h4v1H5V8z" fill="currentColor"/>
</svg>